<svg width="206" height="27" viewBox="0 0 206 27" fill="none" xmlns="http://www.w3.org/2000/svg">
<path d="M15.437 1.16C15.437 0.919998 15.557 0.799998 15.797 0.799998H17.633C17.873 0.799998 17.993 0.919998 17.993 1.16V25.64C17.993 25.88 17.873 26 17.633 26H15.833C15.665 26 15.521 25.916 15.401 25.748L3.12502 5.768C3.10102 5.696 3.06502 5.672 3.01702 5.696C2.96902 5.696 2.94502 5.732 2.94502 5.804L2.98102 25.64C2.98102 25.88 2.86102 26 2.62102 26H0.785016C0.545016 26 0.425016 25.88 0.425016 25.64V1.16C0.425016 0.919998 0.545016 0.799998 0.785016 0.799998H2.58502C2.75302 0.799998 2.89702 0.883999 3.01702 1.052L15.293 21.032C15.317 21.104 15.353 21.14 15.401 21.14C15.449 21.116 15.473 21.068 15.473 20.996L15.437 1.16ZM46.9291 26.288C45.2251 26.288 43.7251 25.94 42.4291 25.244C41.1331 24.548 40.1251 23.576 39.4051 22.328C38.7091 21.056 38.3611 19.592 38.3611 17.936V8.864C38.3611 7.208 38.7091 5.756 39.4051 4.508C40.1251 3.236 41.1331 2.252 42.4291 1.556C43.7251 0.86 45.2251 0.512 46.9291 0.512C48.6331 0.512 50.1331 0.86 51.4291 1.556C52.7491 2.252 53.7571 3.236 54.4531 4.508C55.1731 5.756 55.5331 7.208 55.5331 8.864V17.936C55.5331 19.592 55.1731 21.056 54.4531 22.328C53.7571 23.576 52.7491 24.548 51.4291 25.244C50.1331 25.94 48.6331 26.288 46.9291 26.288ZM46.9291 24.092C48.7531 24.092 50.2171 23.54 51.3211 22.436C52.4251 21.332 52.9771 19.868 52.9771 18.044V8.828C52.9771 7.004 52.4251 5.54 51.3211 4.436C50.2171 3.308 48.7531 2.744 46.9291 2.744C45.1291 2.744 43.6771 3.308 42.5731 4.436C41.4691 5.54 40.9171 7.004 40.9171 8.828V18.044C40.9171 19.868 41.4691 21.332 42.5731 22.436C43.6771 23.54 45.1291 24.092 46.9291 24.092ZM88.5837 12.86C88.4637 12.932 88.4637 13.004 88.5837 13.076C89.8797 13.604 90.8637 14.384 91.5357 15.416C92.2077 16.448 92.5437 17.696 92.5437 19.16C92.5437 21.32 91.8477 23 90.4557 24.2C89.0877 25.4 87.2757 26 85.0197 26H76.3077C76.0677 26 75.9477 25.88 75.9477 25.64V1.16C75.9477 0.919998 76.0677 0.799998 76.3077 0.799998H84.7677C87.0957 0.799998 88.9197 1.376 90.2397 2.528C91.5837 3.68 92.2557 5.3 92.2557 7.388C92.2557 8.708 91.9317 9.836 91.2837 10.772C90.6597 11.684 89.7597 12.38 88.5837 12.86ZM78.6477 3.032C78.5517 3.032 78.5037 3.08 78.5037 3.176V11.816C78.5037 11.912 78.5517 11.96 78.6477 11.96H84.7677C86.2797 11.96 87.4797 11.564 88.3677 10.772C89.2797 9.98 89.7357 8.924 89.7357 7.604C89.7357 6.212 89.2797 5.108 88.3677 4.292C87.4797 3.452 86.2797 3.032 84.7677 3.032H78.6477ZM85.0197 23.732C86.5317 23.732 87.7317 23.3 88.6197 22.436C89.5317 21.572 89.9877 20.408 89.9877 18.944C89.9877 17.48 89.5197 16.316 88.5837 15.452C87.6717 14.564 86.4357 14.12 84.8757 14.12H78.6477C78.5517 14.12 78.5037 14.168 78.5037 14.264V23.588C78.5037 23.684 78.5517 23.732 78.6477 23.732H85.0197ZM127.014 26C126.798 26 126.654 25.904 126.582 25.712L125.142 21.176C125.118 21.104 125.07 21.068 124.998 21.068H114.234C114.162 21.068 114.114 21.104 114.09 21.176L112.65 25.712C112.578 25.904 112.434 26 112.218 26H110.274C110.01 26 109.914 25.868 109.986 25.604L117.942 1.088C118.014 0.895998 118.158 0.799998 118.374 0.799998H120.822C121.038 0.799998 121.182 0.895998 121.254 1.088L129.246 25.604L129.282 25.748C129.282 25.916 129.174 26 128.958 26H127.014ZM114.81 18.8C114.786 18.848 114.786 18.896 114.81 18.944C114.858 18.968 114.906 18.98 114.954 18.98H124.242C124.29 18.98 124.326 18.968 124.35 18.944C124.398 18.896 124.41 18.848 124.386 18.8L119.706 4.112C119.682 4.064 119.646 4.04 119.598 4.04C119.55 4.04 119.514 4.064 119.49 4.112L114.81 18.8ZM164.685 1.052C164.805 0.883999 164.949 0.799998 165.117 0.799998H166.989C167.229 0.799998 167.349 0.919998 167.349 1.16V25.64C167.349 25.88 167.229 26 166.989 26H165.153C164.913 26 164.793 25.88 164.793 25.64V5.624C164.793 5.552 164.769 5.504 164.721 5.48C164.673 5.456 164.637 5.48 164.613 5.552L158.745 14.552C158.625 14.72 158.481 14.804 158.313 14.804H157.377C157.209 14.804 157.065 14.732 156.945 14.588L151.077 5.66C151.053 5.588 151.017 5.564 150.969 5.588C150.921 5.612 150.897 5.66 150.897 5.732V25.64C150.897 25.88 150.777 26 150.537 26H148.701C148.461 26 148.341 25.88 148.341 25.64V1.16C148.341 0.919998 148.461 0.799998 148.701 0.799998H150.573C150.765 0.799998 150.909 0.871999 151.005 1.016L157.773 11.276C157.797 11.3 157.833 11.312 157.881 11.312C157.929 11.312 157.965 11.3 157.989 11.276L164.685 1.052ZM203.416 26C203.2 26 203.056 25.904 202.984 25.712L201.544 21.176C201.52 21.104 201.472 21.068 201.4 21.068H190.636C190.564 21.068 190.516 21.104 190.492 21.176L189.052 25.712C188.98 25.904 188.836 26 188.62 26H186.676C186.412 26 186.316 25.868 186.388 25.604L194.344 1.088C194.416 0.895998 194.56 0.799998 194.776 0.799998H197.224C197.44 0.799998 197.584 0.895998 197.656 1.088L205.648 25.604L205.684 25.748C205.684 25.916 205.576 26 205.36 26H203.416ZM191.212 18.8C191.188 18.848 191.188 18.896 191.212 18.944C191.26 18.968 191.308 18.98 191.356 18.98H200.644C200.692 18.98 200.728 18.968 200.752 18.944C200.8 18.896 200.812 18.848 200.788 18.8L196.108 4.112C196.084 4.064 196.048 4.04 196 4.04C195.952 4.04 195.916 4.064 195.892 4.112L191.212 18.8Z" fill="black"/>
</svg>
